<svg width="24" height="48" viewBox="0 0 24 48" fill="none" xmlns="http://www.w3.org/2000/svg">
<path d="M21 28H7C6.73478 28 6.48043 27.8946 6.29289 27.7071C6.10536 27.5196 6 27.2652 6 27C6 26.7348 6.10536 26.4804 6.29289 26.2929C6.48043 26.1054 6.73478 26 7 26H17.44C18.1087 26 18.7582 25.7767 19.2854 25.3654C19.8126 24.9542 20.1873 24.3786 20.35 23.73L22 17.24C22.0375 17.0924 22.0407 16.9382 22.0095 16.7892C21.9783 16.6401 21.9135 16.5002 21.82 16.38C21.7227 16.2567 21.5978 16.1581 21.4554 16.0921C21.3129 16.0261 21.1569 15.9945 21 16H6.76C6.55369 15.4165 6.17193 14.911 5.66707 14.5529C5.1622 14.1949 4.55894 14.0017 3.94 14H3C2.73478 14 2.48043 14.1054 2.29289 14.2929C2.10536 14.4804 2 14.7348 2 15C2 15.2652 2.10536 15.5196 2.29289 15.7071C2.48043 15.8946 2.73478 16 3 16H3.94C4.16843 15.9933 4.39226 16.0651 4.57421 16.2034C4.75615 16.3417 4.88525 16.5381 4.94 16.76L5 17.24L6.73 24C5.93435 24.0358 5.18551 24.3862 4.64822 24.9741C4.11093 25.5621 3.8292 26.3394 3.865 27.135C3.9008 27.9306 4.25121 28.6795 4.83914 29.2168C5.42707 29.7541 6.20435 30.0358 7 30H7.18C7.01554 30.4531 6.96269 30.9392 7.02593 31.4171C7.08917 31.895 7.26665 32.3506 7.54332 32.7454C7.81999 33.1401 8.18772 33.4624 8.61535 33.6849C9.04299 33.9074 9.51795 34.0235 10 34.0235C10.4821 34.0235 10.957 33.9074 11.3846 33.6849C11.8123 33.4624 12.18 33.1401 12.4567 32.7454C12.7334 32.3506 12.9108 31.895 12.9741 31.4171C13.0373 30.9392 12.9845 30.4531 12.82 30H15.18C15.0155 30.4531 14.9627 30.9392 15.0259 31.4171C15.0892 31.895 15.2666 32.3506 15.5433 32.7454C15.82 33.1401 16.1877 33.4624 16.6154 33.6849C17.043 33.9074 17.5179 34.0235 18 34.0235C18.4821 34.0235 18.957 33.9074 19.3846 33.6849C19.8123 33.4624 20.18 33.1401 20.4567 32.7454C20.7334 32.3506 20.9108 31.895 20.9741 31.4171C21.0373 30.9392 20.9845 30.4531 20.82 30H21C21.2652 30 21.5196 29.8946 21.7071 29.7071C21.8946 29.5196 22 29.2652 22 29C22 28.7348 21.8946 28.4804 21.7071 28.2929C21.5196 28.1054 21.2652 28 21 28ZM19.72 18L18.41 23.24C18.3552 23.4619 18.2262 23.6583 18.0442 23.7966C17.8623 23.9349 17.6384 24.0067 17.41 24H8.78L7.28 18H19.72ZM10 32C9.80222 32 9.60888 31.9414 9.44443 31.8315C9.27998 31.7216 9.15181 31.5654 9.07612 31.3827C9.00043 31.2 8.98063 30.9989 9.01921 30.8049C9.0578 30.6109 9.15304 30.4327 9.29289 30.2929C9.43275 30.153 9.61093 30.0578 9.80491 30.0192C9.99889 29.9806 10.2 30.0004 10.3827 30.0761C10.5654 30.1518 10.7216 30.28 10.8315 30.4444C10.9414 30.6089 11 30.8022 11 31C11 31.2652 10.8946 31.5196 10.7071 31.7071C10.5196 31.8946 10.2652 32 10 32ZM18 32C17.8022 32 17.6089 31.9414 17.4444 31.8315C17.28 31.7216 17.1518 31.5654 17.0761 31.3827C17.0004 31.2 16.9806 30.9989 17.0192 30.8049C17.0578 30.6109 17.153 30.4327 17.2929 30.2929C17.4327 30.153 17.6109 30.0578 17.8049 30.0192C17.9989 29.9806 18.2 30.0004 18.3827 30.0761C18.5654 30.1518 18.7216 30.28 18.8315 30.4444C18.9414 30.6089 19 30.8022 19 31C19 31.2652 18.8946 31.5196 18.7071 31.7071C18.5196 31.8946 18.2652 32 18 32Z" fill="black"/>
</svg>
